<svg version="1.2" xmlns="http://www.w3.org/2000/svg" viewBox="0 0 739 489" width="739" height="489"><style>.s0{fill:#e6e6e6}.s1{fill:#ffffff}.s2{fill:#f2f2f2}.s3{fill:#6c63ff}.s4{fill:#cccccc}.s5{fill:#cacaca}.s6{fill:#3f3d56}.s7{opacity: .2;fill:#000000}.s8{fill:#2f2e41}</style><path class="s0" d="m709 487.5h-217.3c-4 0-7.8-0.8-11.5-2.3c-3.6-1.5-6.9-3.7-9.6-6.4c-2.8-2.8-5-6.1-6.5-9.7c-1.5-3.6-2.3-7.5-2.3-11.4v-342.9c0-3.9 0.8-7.8 2.3-11.4c1.5-3.6 3.7-6.9 6.5-9.6c2.7-2.8 6-5 9.6-6.5c3.7-1.5 7.5-2.3 11.5-2.3h217.3c3.9 0 7.8 0.8 11.4 2.3c3.6 1.5 6.9 3.7 9.7 6.5c2.7 2.7 4.9 6 6.4 9.6c1.5 3.6 2.3 7.5 2.3 11.4v342.9c0 3.9-0.8 7.8-2.3 11.4c-1.5 3.6-3.7 6.9-6.4 9.7c-2.8 2.7-6.1 4.9-9.7 6.4c-3.6 1.5-7.5 2.3-11.4 2.3z" /><path class="s1" d="m716.2 103.5c1.1 0.5 2.1 1.2 3 2c0.9 0.9 1.6 1.9 2 3.1c0.5 1.1 0.7 2.3 0.7 3.5v347.4c0 1.2-0.2 2.4-0.7 3.5c-0.4 1.2-1.1 2.2-2 3.1c-0.9 0.8-1.9 1.5-3 2c-1.2 0.4-2.4 0.7-3.6 0.7h-221.4c-1.2 0-2.4-0.3-3.5-0.7c-1.2-0.5-2.2-1.2-3.1-2c-0.8-0.9-1.5-1.9-2-3.1c-0.4-1.1-0.7-2.3-0.7-3.5v-347.4c0-1.2 0.2-2.4 0.7-3.5c0.5-1.2 1.2-2.2 2-3.1c0.9-0.8 1.9-1.5 3.1-2c1.1-0.5 2.3-0.7 3.5-0.7h221.4c1.2 0 2.4 0.2 3.6 0.7z" /><path class="s0" d="m497 85q0-0.4 0.1-0.9q0.2-0.4 0.5-0.7q0.4-0.3 0.8-0.5q0.4-0.2 0.8-0.2h15.6c0.6 0 1.1 0.3 1.6 0.7c0.4 0.4 0.6 1 0.6 1.6c0 0.6-0.2 1.2-0.6 1.6c-0.5 0.4-1 0.7-1.6 0.7h-15.6q-0.4 0-0.8-0.2q-0.4-0.2-0.8-0.5q-0.3-0.3-0.5-0.7q-0.1-0.4-0.1-0.9z" /><path class="s0" d="m522.5 85q0-0.4 0.2-0.9q0.2-0.4 0.5-0.7q0.3-0.3 0.7-0.5q0.4-0.2 0.9-0.2h15.5c0.6 0 1.2 0.3 1.6 0.7c0.5 0.4 0.7 1 0.7 1.6c0 0.6-0.2 1.2-0.7 1.6c-0.4 0.4-1 0.7-1.6 0.7h-15.5q-0.5 0-0.9-0.2q-0.4-0.2-0.7-0.5q-0.3-0.3-0.5-0.7q-0.2-0.4-0.2-0.9z" /><path class="s0" d="m675.9 85q0-0.4 0.1-0.9q0.2-0.4 0.5-0.7q0.3-0.3 0.8-0.5q0.4-0.2 0.8-0.2h15.5c0.7 0 1.2 0.3 1.7 0.7c0.4 0.4 0.6 1 0.6 1.6c0 0.6-0.2 1.2-0.6 1.6c-0.5 0.4-1 0.7-1.7 0.7h-15.5q-0.4 0-0.8-0.2q-0.5-0.2-0.8-0.5q-0.3-0.3-0.5-0.7q-0.1-0.4-0.1-0.9z" /><path class="s2" d="m632.6 461.6q0 3.6-0.2 7.2h-141.2c-1.2 0-2.4-0.3-3.5-0.7c-1.2-0.5-2.2-1.2-3.1-2c-0.8-0.9-1.5-1.9-2-3.1c-0.4-1.1-0.7-2.3-0.7-3.5v-174.9c20.9 3.4 41 10.4 59.4 20.8c18.4 10.4 34.8 23.9 48.5 40c13.7 16.1 24.5 34.5 31.8 54.3c7.3 19.8 11 40.8 11 61.9z" /><path class="s3" d="m570.8 196.4c0-2.4 1.9-4.3 4.3-4.3h52.7c2.4 0 4.3 1.9 4.3 4.3v5.4c0 2.4-1.9 4.3-4.3 4.3h-52.7c-2.4 0-4.3-1.9-4.3-4.3z" /><path class="s0" d="m537.3 224.6c0-2.4 2-4.4 4.4-4.4h119.6c2.4 0 4.3 2 4.3 4.4v5.4c0 2.4-1.9 4.3-4.3 4.3h-119.6c-2.4 0-4.4-1.9-4.4-4.3z" /><path class="s0" d="m537.3 252.8c0-2.4 2-4.4 4.4-4.4h119.6c2.4 0 4.3 2 4.3 4.4v5.4c0 2.4-1.9 4.3-4.3 4.3h-119.6c-2.4 0-4.4-1.9-4.4-4.3z" /><path fill-rule="evenodd" class="s4" d="m641.4 447.8q0.2 1.4 0.4 2.8q0.2 1.5 0.2 2.9q0.1 1.4 0.1 2.8q-1.5 1.9-3 3.7q0 0.1-0.1 0.1q0 0 0 0q0 0 0 0q0 0.1 0 0.1q-3 3.6-6 7.3q0.9 0.1 1.9 0.2q0.9 0.1 1.8 0.2q0.9 0.1 1.8 0.1q1 0 1.9-0.1q-0.1 0.4-0.3 0.9h-26.6q-1.2-2.6-2.2-5.3q-1.1-2.7-2-5.4q-1-2.7-1.8-5.5q-0.8-2.7-1.4-5.5q-4.8-0.1-9.4-1.1q-4.7-0.9-9-2.9q-4.4-1.9-8.3-4.6q-3.8-2.8-7.1-6.3q-1.3-1.4-2.5-2.9q-1.2-1.6-2.2-3.2q-1-1.6-1.9-3.4q-0.9-1.7-1.7-3.5q0.1 0 0.2 0h0.1c0.9-0.2 1.7-0.6 2.4-1.2c0.7-0.6 1.1-1.4 1.3-2.3c0.2-0.9 0.1-1.9-0.2-2.7c-0.3-0.9-0.9-1.6-1.7-2.1q-0.9-0.6-1.8-1.1q-0.5-0.3-0.9-0.5q-0.4-0.2-0.8-0.4q-0.5-0.2-0.9-0.4q-0.4-0.2-0.9-0.4q0-0.1 0-0.2c-0.1-1 0-2 0.5-2.9c0.4-0.9 1-1.6 1.9-2.2c0.8-0.5 1.8-0.8 2.8-0.8c1 0 2 0.3 2.8 0.8c7.9 4.9 18.2 7.1 25.5 13.1q1.8 1.5 3.3 3.3q1.6 1.8 2.8 3.9q1.2 2 2 4.2q0.9 2.3 1.3 4.6l0.1 0.2q-0.2-2.1-0.3-4.2q-0.1-2.2-0.1-4.3q0-2.1 0.1-4.2q0-2.1 0.2-4.3q0.3-3.6 0.8-7.1q0.5-3.6 1.3-7.1q0.7-3.5 1.7-7q1-3.4 2.2-6.8q-0.6-0.3-1.1-0.6q-4.3-2.3-8-5.3q-3.7-3.1-6.7-6.9q-3-3.7-5.1-8q-2.2-4.3-3.4-9q-0.2-0.8-0.4-1.6q-0.2-0.9-0.3-1.7q-0.2-0.9-0.3-1.7q-0.1-0.9-0.2-1.7h0.1c0.9-0.2 1.7-0.6 2.4-1.2c0.7-0.6 1.1-1.4 1.3-2.3c0.2-0.9 0.2-1.9-0.2-2.7c-0.3-0.9-0.9-1.6-1.7-2.1q-0.9-0.6-1.8-1.1q0-0.1 0-0.3c0.9-8.2 11.4-11 16.5-4.5c4.3 5.4 9.1 10.6 11.7 16.8q0.9 2.5 1.6 5.1q0.6 2.6 1 5.2q0.3 2.7 0.3 5.4q0 2.6-0.2 5.3q1.2-2.4 2.5-4.7q1.3-2.3 2.7-4.6q1.4-2.2 2.9-4.4q1.6-2.2 3.2-4.3q0.4-0.4 0.7-0.9q-0.9-1.3-1.7-2.8q-0.8-1.4-1.4-2.9q-0.7-1.5-1.3-3q-0.5-1.5-0.9-3.1c-1.1-5-0.5-10.6 2.7-14.5c3.1-4 9.2-5.8 13.6-3.2q0.5 0.3 0.9 0.6q0.5 0.3 0.9 0.7q0.3 0.4 0.7 0.8q0.3 0.5 0.6 0.9q-0.6 0.8-1.3 1.6q0 0.1 0 0.1q0 0 0 0q0 0-0.1 0.1q0 0 0 0q-0.6 0.7-1.1 1.4q-0.4 0.5-0.8 0.9c-0.4 0.5-0.7 1.1-0.7 1.8c-0.1 0.6 0 1.2 0.3 1.8c0.3 0.6 0.7 1.1 1.3 1.4c0.6 0.3 1.2 0.5 1.8 0.4h0.1q0.3 0 0.5 0q0.9 0 1.8-0.2q-0.1 0.8-0.3 1.6q-0.2 0.8-0.5 1.5q-0.2 0.8-0.5 1.5q-0.3 0.7-0.7 1.4q-1 2-2.2 3.8q-1.3 1.8-2.8 3.3q-1.5 1.6-3.3 2.9q-1.7 1.4-3.6 2.4q-4 5-7.4 10.4q-3.3 5.4-6 11.2q-2.7 5.8-4.7 11.8q-2 6.1-3.3 12.3q-1 4.7-1.5 9.3q-0.1 1.5-0.3 2.9q-0.1 1.4-0.2 2.9q0 1.4-0.1 2.8q0 1.5 0 2.9q0 5.7 0.6 11.4q0.6 5.7 1.8 11.3q1.3 5.6 3.1 11q1.8 5.4 4.2 10.6q-0.3-1.1-0.4-2.3q-0.2-1.1-0.3-2.2q0-1.2 0-2.3q0.1-1.2 0.2-2.3c0.9-6.9 4.3-13.5 7-20c0.7-1.7 1.8-3.1 3.3-4c1.5-1 3.2-1.6 5-1.6c1.8 0 3.5 0.5 5 1.5c1.5 1 2.6 2.4 3.3 4q0.1 0.1 0.1 0.2l-0.2 1c-0.5 0.4-0.9 1-1 1.7c-0.2 0.7-0.1 1.4 0.2 2c0.2 0.6 0.7 1.2 1.2 1.5c0.6 0.4 1.3 0.6 2 0.6q0.3 1.3 0.6 2.7zm-31-62.6v-0.1v0.1zm-5.9 53.1q-0.2-1-0.3-2q0 0.1 0 0.3q0 0.6 0 1.1l0.3 0.5z" /><path class="s5" d="m701.5 133.5h-199.2c-0.4 0-0.8-0.2-1.1-0.5c-0.3-0.3-0.5-0.8-0.5-1.2c0-0.4 0.2-0.8 0.5-1.1c0.3-0.3 0.7-0.5 1.1-0.5h199.2c0.5 0 0.9 0.2 1.2 0.5c0.3 0.3 0.5 0.7 0.5 1.1c0 0.4-0.2 0.9-0.5 1.2c-0.3 0.3-0.7 0.5-1.2 0.5z" /><path class="s6" d="m512.9 125.4c-2.6 0-4.8-2.2-4.8-5c0-2.7 2.2-4.9 4.8-4.9c2.7 0 4.9 2.2 4.9 4.9c0 2.8-2.2 5-4.9 5z" /><path class="s6" d="m529.7 125.4c-2.7 0-4.9-2.2-4.9-5c0-2.7 2.2-4.9 4.9-4.9c2.7 0 4.8 2.2 4.8 4.9c0 2.8-2.1 5-4.8 5z" /><path class="s6" d="m546.4 125.4c-2.7 0-4.8-2.2-4.8-5c0-2.7 2.1-4.9 4.8-4.9c2.7 0 4.9 2.2 4.9 4.9c0 2.8-2.2 5-4.9 5z" /><path class="s6" d="m694.3 117.7q0.3 0.2 0.3 0.5q0 0.4-0.3 0.6q-0.2 0.2-0.5 0.2h-10.9q-0.3 0-0.6-0.2q-0.2-0.2-0.2-0.6q0-0.3 0.2-0.5q0.3-0.3 0.6-0.3h10.9q0.3 0 0.5 0.3z" /><path class="s6" d="m694.3 120.7q0.3 0.3 0.3 0.6q0 0.3-0.3 0.6q-0.2 0.2-0.5 0.2h-10.9q-0.3 0-0.6-0.2q-0.2-0.3-0.2-0.6q0-0.3 0.2-0.6q0.3-0.2 0.6-0.2h10.9q0.3 0 0.5 0.2z" /><path class="s6" d="m694.3 123.8q0.3 0.3 0.3 0.6q0 0.3-0.3 0.6q-0.2 0.2-0.5 0.2h-10.9q-0.3 0-0.6-0.2q-0.2-0.3-0.2-0.6q0-0.3 0.2-0.6q0.3-0.2 0.6-0.2h10.9q0.3 0 0.5 0.2z" /><path fill-rule="evenodd" class="s0" d="m372.9 285.2q1.1 0.5 2 1.4q0.8 0.8 1.3 2q0.5 1.1 0.5 2.3v182.5h-127.9v-182.5q0-1.2 0.5-2.3q0.5-1.2 1.3-2q0.9-0.9 2-1.4q1.2-0.4 2.4-0.4h115.5q1.2 0 2.4 0.4zm-54.6 102.2c1.7-0.7 3.2-1.7 4.5-3c1.2-1.2 2.2-2.7 2.9-4.4c0.7-1.6 1.1-3.4 1.1-5.2v-21c0-3.7-1.5-7.1-4-9.7c-2.6-2.5-6.1-4-9.7-4c-3.6 0-7.1 1.5-9.6 4c-2.6 2.6-4 6-4 9.7v21c0 1.8 0.4 3.6 1 5.2c0.7 1.7 1.7 3.2 3 4.4c1.3 1.3 2.8 2.3 4.4 3c1.7 0.7 3.4 1 5.2 1c1.8 0 3.6-0.3 5.2-1z" /><path class="s4" d="m377.1 467.6v17.6q0 0.7-0.3 1.3q-0.3 0.6-0.7 1.1q-0.5 0.5-1.2 0.8q-0.6 0.2-1.3 0.2h-121.7q-0.7 0-1.3-0.2q-0.7-0.3-1.2-0.8q-0.4-0.5-0.7-1.1q-0.3-0.6-0.3-1.3v-17.6z" /><path class="s0" d="m567.9 1.2c1.9 0.8 3.7 2 5.2 3.5c1.5 1.5 2.6 3.2 3.5 5.2c0.8 1.9 1.2 4 1.2 6.1v333.2c0 2.1-0.4 4.2-1.2 6.1c-0.9 2-2 3.7-3.5 5.2c-1.5 1.5-3.3 2.7-5.2 3.5c-1.9 0.8-4 1.2-6.1 1.2h-493.8c-2.1 0-4.2-0.4-6.1-1.2c-2-0.8-3.7-2-5.2-3.5c-1.5-1.5-2.7-3.2-3.5-5.2c-0.8-1.9-1.2-4-1.2-6.1v-333.2c0-2.1 0.4-4.2 1.2-6.1c0.8-2 2-3.7 3.5-5.2c1.5-1.5 3.3-2.7 5.2-3.5c1.9-0.8 4-1.2 6.1-1.2h493.8c2.1 0 4.2 0.4 6.1 1.2z" /><path class="s1" d="m560.9 12.2c1.1 0.4 2 1.1 2.8 1.9c0.8 0.8 1.4 1.7 1.9 2.8c0.4 1 0.6 2.1 0.6 3.2v325c0 1.1-0.2 2.2-0.6 3.2c-0.5 1.1-1.1 2-1.9 2.8c-0.8 0.8-1.7 1.4-2.8 1.9c-1 0.4-2.1 0.6-3.2 0.6h-485.6c-1.1 0-2.2-0.2-3.2-0.6c-1.1-0.5-2-1.1-2.8-1.9c-0.8-0.8-1.4-1.7-1.9-2.8c-0.4-1-0.6-2.1-0.6-3.2v-325c0-1.1 0.2-2.2 0.6-3.2c0.5-1.1 1.1-2 1.9-2.8c0.8-0.8 1.7-1.5 2.8-1.9c1-0.4 2.1-0.6 3.2-0.6h485.6c1.1 0 2.2 0.2 3.2 0.6z" /><path class="s3" d="m566.2 20.1v325c0 1.1-0.2 2.2-0.6 3.2c-0.5 1.1-1.1 2-1.9 2.8c-0.8 0.8-1.7 1.4-2.8 1.9c-1 0.4-2.1 0.6-3.2 0.6h-171.3q-7-6.5-13.5-13.7q-6.4-7.2-12.2-15q-5.8-7.8-10.8-16q-5-8.3-9.3-16.9q-1.1-2.3-2.1-4.6q-3.9-8.4-7-17.1q-3.1-8.7-5.4-17.7q-2.4-8.9-3.9-18.1q-1.5-9.1-2.2-18.3q-0.2-2.3-0.3-4.6q-0.4-5.8-0.4-11.8q0-9.9 0.9-19.8q1-9.9 2.8-19.6q1.9-9.8 4.7-19.3q2.7-9.5 6.4-18.7q0.9-2.3 1.8-4.6c4.9-11.4 10.8-22.4 17.6-32.8c6.8-10.5 14.5-20.2 23.1-29.3c8.5-9 17.8-17.3 27.8-24.7c10-7.4 20.7-13.9 31.8-19.4h121.5c1.1 0 2.2 0.2 3.2 0.6c1.1 0.4 2 1.1 2.8 1.9c0.8 0.8 1.4 1.7 1.9 2.8c0.4 1 0.6 2.1 0.6 3.2z" /><path class="s5" d="m533.2 56.3h-454.2c-0.5 0-1-0.2-1.3-0.5c-0.3-0.4-0.5-0.8-0.5-1.3c0-0.5 0.2-0.9 0.5-1.2c0.3-0.4 0.8-0.6 1.3-0.6h454.2c0.5 0 1 0.2 1.3 0.6c0.3 0.3 0.5 0.7 0.5 1.2c0 0.5-0.2 0.9-0.5 1.3c-0.3 0.3-0.8 0.5-1.3 0.5z" /><path class="s6" d="m109.9 43.5c-5.9 0-10.6-4.8-10.6-10.8c0-6 4.7-10.9 10.6-10.9c5.8 0 10.6 4.9 10.6 10.9c0 6-4.8 10.8-10.6 10.8z" /><path class="s6" d="m146.5 43.5c-5.9 0-10.6-4.8-10.6-10.8c0-6 4.7-10.9 10.6-10.9c5.8 0 10.5 4.9 10.5 10.9c0 6-4.7 10.8-10.5 10.8z" /><path class="s6" d="m183 43.5c-5.8 0-10.6-4.8-10.6-10.8c0-6 4.8-10.9 10.6-10.9c5.9 0 10.6 4.9 10.6 10.9c0 6-4.7 10.8-10.6 10.8z" /><path class="s6" d="m512.6 25.1c0.4 0.4 0.6 0.9 0.6 1.4c0 0.5-0.2 1-0.6 1.4c-0.4 0.3-0.9 0.5-1.4 0.6h-26c-0.5-0.1-1-0.3-1.3-0.6c-0.4-0.4-0.6-0.9-0.6-1.4c0-0.5 0.2-1 0.6-1.4c0.3-0.4 0.8-0.6 1.3-0.6h26c0.5 0 1 0.2 1.4 0.6z" /><path class="s6" d="m512.6 32.5c0.4 0.4 0.6 0.9 0.6 1.4c0 0.5-0.2 1-0.6 1.4c-0.4 0.3-0.9 0.5-1.4 0.5h-26c-0.5 0-1-0.2-1.3-0.5c-0.4-0.4-0.6-0.9-0.6-1.4c0-0.5 0.2-1 0.6-1.4c0.3-0.4 0.8-0.6 1.3-0.6h26c0.5 0 1 0.2 1.4 0.6z" /><path class="s6" d="m512.6 39.9c0.4 0.3 0.6 0.8 0.6 1.4c0 0.5-0.2 1-0.6 1.3c-0.4 0.4-0.9 0.6-1.4 0.6h-26c-0.5 0-1-0.2-1.3-0.6c-0.4-0.3-0.6-0.8-0.6-1.3c0-0.6 0.2-1.1 0.6-1.4c0.3-0.4 0.8-0.6 1.3-0.6h26c0.5 0 1 0.2 1.4 0.6z" /><path class="s3" d="m150.2 166.2c0-2.4 1.9-4.3 4.3-4.3h63.6c2.3 0 4.3 1.9 4.3 4.3v6.8c0 2.4-2 4.3-4.3 4.3h-63.6c-2.4 0-4.3-1.9-4.3-4.3z" /><path class="s0" d="m113.5 197.1c0-2.4 2-4.3 4.4-4.3h136.8c2.4 0 4.4 1.9 4.4 4.3v6.8c0 2.3-2 4.3-4.4 4.3h-136.8c-2.4 0-4.4-2-4.4-4.3z" /><path class="s0" d="m113.5 228c0-2.4 2-4.4 4.4-4.4h136.8c2.4 0 4.4 2 4.4 4.4v6.7c0 2.4-2 4.4-4.4 4.4h-136.8c-2.4 0-4.4-2-4.4-4.4z" /><path class="s3" d="m125.4 335q0 2.4-0.2 4.7q-0.2 2.4-0.6 4.8q-0.5 2.3-1.1 4.6q-0.6 2.3-1.5 4.5h-49.9c-1.1 0-2.2-0.2-3.2-0.6c-1.1-0.5-2-1.1-2.8-1.9c-0.8-0.8-1.4-1.7-1.9-2.8c-0.4-1-0.6-2.1-0.6-3.2v-62.8q1-0.2 2.1-0.3q1-0.1 2.1-0.2q1-0.1 2.1-0.1q1.1-0.1 2.1-0.1c7 0 14 1.4 20.4 4.1c6.5 2.7 12.4 6.6 17.4 11.6c4.9 4.9 8.8 10.8 11.5 17.3c2.7 6.4 4.1 13.4 4.1 20.4z" /><path fill-rule="evenodd" class="s7" d="m490.3 122.4v89.2h76.4v4.6h-5.2c-9.3 0-18.6 1.8-27.2 5.4c-8.7 3.6-16.5 8.8-23.1 15.5c-6.6 6.6-11.9 14.4-15.5 23.1c-3.6 8.6-5.4 17.9-5.4 27.2h76.4v4.6h-76.4v59.8h-4.5v-59.8h-87.5v59.8h-4.6v-59.8h-53.1q-1.1-2.3-2.1-4.6h55.2v-71.2h-73.7q-0.2-2.3-0.3-4.6h74v-89.2h-59.6q0.9-2.3 1.8-4.6h57.8v-52.8h4.6v52.8h87.5v-52.8h4.5v52.8h76.4v4.6zm-4.6 93.8h-87.5v71.2h87.5zm0-93.8c-11.5 0-22.9 2.2-33.5 6.6c-10.6 4.4-20.2 10.9-28.4 19c-8.1 8.1-14.5 17.8-18.9 28.4c-4.4 10.6-6.7 22-6.7 33.5v1.8h87.5z" /><path fill-rule="evenodd" class="s8" d="m506 323.9q0.4 2 0.6 4q0.2 2 0.4 4q0.1 2 0 4q-2.1 2.7-4.3 5.3q0 0 0 0q0 0.1 0 0.1q-0.1 0-0.1 0q0 0.1 0 0.1q-4.2 5.2-8.4 10.3q1.3 0.3 2.6 0.4q1.3 0.2 2.6 0.3q1.3 0 2.6 0q1.3 0 2.6 0q-0.2 0.6-0.4 1.2h-37.7q-1.7-3.7-3.3-7.5q-1.5-3.8-2.8-7.6q-1.3-3.9-2.5-7.8q-1.1-3.9-2-7.9c-4.5-0.1-9-0.5-13.4-1.5c-4.4-0.9-8.6-2.3-12.8-4.1c-4.1-1.8-8-4-11.6-6.6c-3.7-2.6-7.1-5.6-10.2-8.9q-1.8-2-3.5-4.2q-1.7-2.2-3.2-4.5q-1.5-2.3-2.7-4.8q-1.3-2.4-2.4-5q0.2 0 0.3 0h0.1c1.3-0.2 2.5-0.8 3.5-1.7c0.9-0.9 1.6-2 1.8-3.3c0.3-1.3 0.2-2.6-0.3-3.8c-0.5-1.2-1.3-2.2-2.4-3q-1.3-0.8-2.6-1.6q-0.6-0.3-1.2-0.6q-0.6-0.3-1.2-0.6q-0.6-0.3-1.2-0.6q-0.6-0.3-1.3-0.5q0-0.2 0-0.3c-1-6.3 5.9-10.5 11.3-7.2c11.2 6.8 25.8 10 36.2 18.5q2.6 2.1 4.8 4.7q2.2 2.6 3.9 5.5q1.7 2.9 2.9 6.1q1.2 3.1 1.9 6.4v0.3q-0.2-3-0.4-6q-0.1-3-0.1-6q0-3 0.1-6.1q0.1-3 0.3-6q0.4-5.1 1.1-10.1q0.8-5.1 1.8-10.1q1.1-5 2.5-9.9q1.4-4.9 3.1-9.7q-0.8-0.4-1.6-0.8c-4-2.2-7.8-4.7-11.3-7.6c-3.5-2.9-6.6-6.2-9.5-9.7c-2.8-3.6-5.2-7.4-7.3-11.5c-2-4-3.6-8.3-4.8-12.7q-0.3-1.1-0.6-2.3q-0.2-1.2-0.4-2.4q-0.2-1.2-0.4-2.4q-0.2-1.2-0.3-2.4l0.1-0.1c1.3-0.2 2.5-0.7 3.5-1.6c0.9-0.9 1.6-2.1 1.9-3.3c0.2-1.3 0.1-2.6-0.4-3.8c-0.4-1.3-1.3-2.3-2.4-3q-1.2-0.9-2.6-1.6q0-0.2 0-0.4c1.3-11.6 16.2-15.6 23.5-6.4c6 7.6 12.9 15.1 16.5 23.9q1.4 3.5 2.3 7.2q0.9 3.7 1.4 7.5q0.5 3.7 0.6 7.5q0 3.8-0.4 7.6q1.7-3.4 3.5-6.7q1.9-3.3 3.9-6.5q2-3.2 4.2-6.3q2.2-3 4.5-6q0.5-0.7 1-1.3c-3.3-5.3-6.2-10.8-7.6-16.8c-1.5-7.1-0.7-15 3.9-20.7c4.5-5.6 13.1-8.1 19.3-4.5q0.7 0.4 1.3 0.9q0.6 0.5 1.2 1q0.5 0.6 1 1.2q0.5 0.6 1 1.2q-1 1.2-1.9 2.3q0 0.1 0 0.1q-0.1 0-0.1 0q0 0.1 0 0.1q-0.1 0-0.1 0q-0.8 1.1-1.6 2.1q-0.5 0.6-1.1 1.3c-0.6 0.7-0.9 1.5-1 2.4c-0.1 0.9 0.1 1.9 0.5 2.7c0.4 0.8 1 1.5 1.8 1.9c0.8 0.5 1.7 0.7 2.6 0.7h0.1q0.4-0.1 0.8-0.1q1.2-0.1 2.5-0.2q-0.2 1.1-0.5 2.2q-0.3 1.1-0.6 2.1q-0.4 1.1-0.8 2.1q-0.5 1.1-1 2.1q-1.4 2.8-3.2 5.3q-1.7 2.5-3.9 4.8q-2.2 2.2-4.6 4.1q-2.5 1.9-5.2 3.4q-5.7 7-10.5 14.7q-4.7 7.7-8.6 15.9q-3.8 8.2-6.7 16.8q-2.8 8.6-4.6 17.5q-1.3 6.6-2.1 13.2q-0.2 2.1-0.4 4.1q-0.2 2-0.3 4.1q-0.1 2-0.1 4q-0.1 2.1-0.1 4.1q0 8.1 0.9 16.2q0.9 8.1 2.6 16q1.7 7.9 4.3 15.6q2.6 7.7 6 15.1q-0.4-1.6-0.6-3.2q-0.2-1.6-0.3-3.2q-0.1-1.7 0-3.3q0-1.6 0.2-3.3c1.2-9.8 6.1-19.1 10-28.3c4.3-10.5 19.2-10.6 23.5-0.1q0.1 0.1 0.2 0.3c-0.2 0.5-0.2 0.8-0.4 1.3c-0.7 0.6-1.2 1.5-1.4 2.5c-0.2 0.9-0.1 1.9 0.3 2.8c0.4 0.9 1 1.7 1.8 2.2c0.8 0.5 1.8 0.8 2.8 0.7q0.5 2 0.8 4zm-44.1-89l0.1-0.1l-0.1 0.1zm-8.3 75.4q-0.2-1.4-0.4-2.8q0 0.2 0.1 0.4q0 0.8 0 1.6l0.3 0.7z" /><path class="s0" d="m169.7 231.8q0.3 0.1 0.6 0.4q0.2 0.2 0.4 0.6q0.1 0.3 0.1 0.7v32.4q0 0.3-0.1 0.7q-0.2 0.3-0.4 0.6q-0.3 0.2-0.6 0.4q-0.4 0.1-0.7 0.1v191.6c0 3.8-0.8 7.6-2.3 11.2c-1.4 3.6-3.6 6.8-6.3 9.5c-2.8 2.7-6 4.9-9.6 6.4c-3.5 1.5-7.3 2.2-11.2 2.2h-107.5c-3.9 0-7.7-0.7-11.2-2.2c-3.6-1.5-6.8-3.7-9.6-6.4c-2.7-2.7-4.9-5.9-6.3-9.5c-1.5-3.6-2.3-7.4-2.3-11.2v-278.4c0-3.9 0.8-7.7 2.3-11.3c1.4-3.5 3.6-6.8 6.3-9.5c2.8-2.7 6-4.9 9.6-6.4c3.5-1.4 7.3-2.2 11.2-2.2h107.5c3.9 0 7.7 0.8 11.2 2.2c3.6 1.5 6.8 3.7 9.6 6.4c2.7 2.7 4.9 6 6.3 9.5c1.5 3.6 2.3 7.4 2.3 11.3v50.7q0.3 0 0.7 0.2z" /><path class="s1" d="m162.7 181.1v278c0 2.8-0.5 5.6-1.6 8.3c-1.1 2.6-2.7 5-4.7 7.1c-2 2-4.4 3.6-7 4.7c-2.7 1.2-5.5 1.7-8.4 1.8q0 0 0 0q-0.1 0-0.1 0q0 0 0 0q-0.1 0-0.1 0h-108c-2.9 0-5.8-0.6-8.4-1.7c-2.7-1.1-5.1-2.7-7.1-4.7c-2.1-2.1-3.7-4.5-4.8-7.2c-1.1-2.6-1.7-5.5-1.7-8.3v-278c0-2.9 0.6-5.8 1.7-8.4c1.1-2.7 2.7-5.1 4.8-7.1c2-2.1 4.4-3.7 7.1-4.8c2.6-1.1 5.5-1.7 8.4-1.7h13.1c-0.7 1.6-0.9 3.3-0.7 5c0.1 1.7 0.7 3.4 1.7 4.8c0.9 1.4 2.2 2.6 3.7 3.4c1.5 0.8 3.2 1.2 4.9 1.2h61.6c1.7 0 3.4-0.4 4.9-1.2c1.5-0.8 2.8-2 3.8-3.4c0.9-1.4 1.5-3.1 1.7-4.8c0.1-1.7-0.1-3.4-0.7-5h14c2.9 0 5.7 0.6 8.4 1.7c2.6 1.1 5.1 2.7 7.1 4.8c2 2 3.7 4.4 4.8 7.1c1.1 2.6 1.6 5.5 1.6 8.4z" /><path class="s2" d="m141.3 472.4q0 4.3-0.3 8.6q0 0 0 0q-0.1 0-0.1 0q0 0 0 0q-0.1 0-0.1 0h-108c-2.9 0-5.8-0.6-8.4-1.7c-2.7-1.1-5.1-2.7-7.1-4.7c-2.1-2.1-3.7-4.5-4.8-7.2c-1.1-2.6-1.7-5.5-1.7-8.4v-123.8c17.5 0.8 34.6 5 50.5 12.3c15.8 7.3 30.2 17.6 42.2 30.2c12 12.7 21.5 27.5 28 43.7c6.5 16.2 9.8 33.5 9.8 51z" /><path class="s0" d="m3.3 260q-0.5 0-0.9-0.2q-0.5-0.2-0.8-0.5q-0.4-0.4-0.6-0.8q-0.2-0.5-0.2-1v-17c0-0.7 0.3-1.3 0.8-1.8c0.4-0.4 1.1-0.7 1.7-0.7c0.7 0 1.3 0.3 1.8 0.7c0.5 0.5 0.7 1.1 0.7 1.8v17q0 0.5-0.2 1q-0.2 0.4-0.5 0.8q-0.4 0.3-0.8 0.5q-0.5 0.2-1 0.2z" /><path class="s3" d="m69.2 250.8c0-2.4 1.9-4.4 4.3-4.4h26.5c2.4 0 4.4 2 4.4 4.4v6.7c0 2.4-2 4.4-4.4 4.4h-26.5c-2.4 0-4.3-2-4.3-4.4z" /><path class="s0" d="m32.5 281.6c0-2.4 1.9-4.3 4.3-4.3h99.9c2.4 0 4.4 1.9 4.4 4.3v6.8c0 2.4-2 4.3-4.4 4.3h-99.9c-2.4 0-4.3-1.9-4.3-4.3z" /><path class="s0" d="m32.5 312.5c0-2.4 1.9-4.3 4.3-4.3h99.9c2.4 0 4.4 1.9 4.4 4.3v6.8c0 2.4-2 4.3-4.4 4.3h-99.9c-2.4 0-4.3-1.9-4.3-4.3z" /><path fill-rule="evenodd" class="s4" d="m113.1 467q0.2 0.9 0.3 1.9q0.1 0.9 0.1 1.9q0.1 0.9 0.1 1.9q-1.1 1.2-2.1 2.4q0 0.1 0 0.1q0 0 0 0q0 0 0 0q0 0 0 0q-2 2.5-4 4.9q0.6 0.1 1.2 0.2q0.6 0.1 1.3 0.1q0.6 0 1.2 0q0.6 0 1.2 0q-0.1 0.3-0.2 0.6h-17.7q-0.8-1.8-1.5-3.5q-0.7-1.8-1.3-3.6q-0.7-1.8-1.2-3.7q-0.5-1.8-0.9-3.7q-3.2 0-6.3-0.7q-3.1-0.6-6-1.9q-2.9-1.3-5.5-3.1q-2.6-1.9-4.7-4.2q-0.9-0.9-1.7-2q-0.8-1-1.5-2.1q-0.7-1.1-1.3-2.2q-0.6-1.2-1.1-2.4q0.1 0 0.1 0h0.1c0.6-0.1 1.2-0.3 1.6-0.8c0.5-0.4 0.8-0.9 0.9-1.5c0.1-0.6 0.1-1.2-0.2-1.8c-0.2-0.6-0.6-1.1-1.1-1.4q-0.6-0.4-1.2-0.7q-0.3-0.2-0.6-0.3q-0.3-0.2-0.5-0.3q-0.3-0.2-0.6-0.3q-0.3-0.1-0.6-0.2v-0.2c-0.1-0.6 0-1.3 0.3-1.9c0.3-0.6 0.7-1.1 1.3-1.5c0.5-0.3 1.2-0.5 1.8-0.5c0.7 0 1.3 0.2 1.9 0.5c5.2 3.2 12.1 4.7 17 8.7q1.2 1 2.2 2.2q1.1 1.2 1.9 2.6q0.8 1.4 1.3 2.9q0.6 1.4 0.9 3v0.1q-0.1-1.4-0.2-2.8q0-1.4 0-2.8q0-1.4 0-2.9q0.1-1.4 0.2-2.8q0.2-2.4 0.5-4.7q0.3-2.4 0.8-4.8q0.5-2.3 1.2-4.6q0.6-2.3 1.4-4.6q-0.3-0.2-0.7-0.4q-2.8-1.5-5.3-3.5q-2.5-2.1-4.4-4.6q-2-2.5-3.5-5.3q-1.4-2.9-2.2-6q-0.2-0.5-0.3-1.1q-0.1-0.6-0.2-1.1q-0.1-0.6-0.2-1.2q-0.1-0.5-0.1-1.1c0.6-0.1 1.2-0.4 1.6-0.8c0.5-0.4 0.8-0.9 0.9-1.5c0.2-0.6 0.1-1.3-0.1-1.8c-0.2-0.6-0.6-1.1-1.1-1.4q-0.7-0.4-1.3-0.8q0-0.1 0-0.1c0.2-1.2 0.7-2.4 1.5-3.3c0.8-0.9 1.8-1.6 3-1.9c1.2-0.3 2.4-0.3 3.6 0.1c1.2 0.4 2.2 1.1 2.9 2c2.9 3.6 6.1 7.1 7.8 11.3q0.6 1.6 1.1 3.4q0.4 1.7 0.6 3.4q0.3 1.8 0.3 3.6q0 1.8-0.2 3.5q0.8-1.6 1.7-3.1q0.8-1.5 1.8-3q0.9-1.5 1.9-3q1.1-1.4 2.2-2.8q0.2-0.3 0.4-0.6q-0.6-0.9-1.1-1.9q-0.5-0.9-1-1.9q-0.4-1-0.8-2.1q-0.3-1-0.6-2c-0.7-3.3-0.3-7.1 1.8-9.7c2.1-2.7 6.1-3.8 9.1-2.1q0.3 0.2 0.6 0.4q0.3 0.2 0.5 0.5q0.3 0.2 0.5 0.5q0.3 0.3 0.5 0.6q-0.5 0.5-0.9 1.1q0 0 0 0q-0.1 0-0.1 0q0 0 0 0.1q0 0 0 0q-0.4 0.4-0.8 0.9q-0.2 0.3-0.5 0.6q-0.4 0.5-0.5 1.2q0 0.6 0.3 1.2q0.3 0.6 0.8 0.9q0.6 0.4 1.2 0.3h0.1q0.2 0 0.4 0q0.5 0 1.1-0.1q-0.1 0.5-0.2 1q-0.1 0.6-0.3 1.1q-0.2 0.5-0.4 0.9q-0.2 0.5-0.4 1q-0.7 1.3-1.5 2.5q-0.8 1.2-1.8 2.2q-1.1 1.1-2.2 2q-1.2 0.9-2.5 1.6q-2.6 3.3-4.9 6.9q-2.2 3.6-4 7.4q-1.8 3.9-3.1 7.9q-1.4 4.1-2.2 8.2q-0.6 3.1-1 6.2q-0.1 1-0.2 1.9q-0.1 1-0.1 1.9q-0.1 1-0.1 2q0 0.9 0 1.9q0 3.8 0.4 7.6q0.4 3.8 1.2 7.5q0.8 3.7 2 7.3q1.3 3.6 2.8 7.1q-0.1-0.8-0.2-1.5q-0.1-0.8-0.2-1.5q0-0.8 0-1.6q0-0.7 0.1-1.5c0.6-4.6 2.9-9 4.7-13.3c0.5-1.1 1.2-2 2.2-2.7c1-0.7 2.1-1 3.3-1c1.2 0 2.4 0.3 3.3 1c1 0.6 1.8 1.6 2.3 2.6q0 0.1 0 0.2l-0.1 0.6c-0.4 0.3-0.6 0.7-0.7 1.2c-0.1 0.4-0.1 0.9 0.1 1.3c0.2 0.4 0.5 0.8 0.9 1c0.4 0.3 0.8 0.4 1.3 0.4q0.2 0.9 0.4 1.8zm-20.7-41.7v-0.1zm-3.9 35.4q-0.1-0.6-0.2-1.3q0 0.1 0 0.2q0 0.4 0 0.8l0.2 0.3z" /><path class="s0" d="m2.8 227q-0.5 0-0.9-0.2q-0.5-0.2-0.8-0.5q-0.4-0.4-0.6-0.8q-0.2-0.5-0.2-1v-17c0-0.7 0.3-1.3 0.8-1.8c0.4-0.4 1.1-0.7 1.7-0.7c0.7 0 1.3 0.3 1.8 0.7c0.5 0.5 0.7 1.1 0.7 1.8v17q0 0.5-0.2 1q-0.2 0.4-0.5 0.8q-0.4 0.3-0.8 0.5q-0.5 0.2-1 0.2z" /><path class="s1" d="m69.3 162q0-0.5 0.2-1q0.2-0.4 0.6-0.8q0.3-0.3 0.8-0.5q0.4-0.2 0.9-0.2h17c0.7 0 1.3 0.3 1.8 0.7c0.5 0.5 0.7 1.1 0.7 1.8c0 0.7-0.2 1.3-0.7 1.8c-0.5 0.4-1.1 0.7-1.8 0.7h-17q-0.5 0-0.9-0.2q-0.5-0.2-0.8-0.5q-0.4-0.4-0.6-0.8q-0.2-0.5-0.2-1z" /><path class="s0" d="m3.3 289q-0.5 0-0.9-0.2q-0.5-0.2-0.8-0.5q-0.4-0.4-0.6-0.8q-0.2-0.5-0.2-1v-17c0-0.7 0.3-1.3 0.8-1.8c0.4-0.4 1.1-0.7 1.7-0.7c0.7 0 1.3 0.3 1.8 0.7c0.5 0.5 0.7 1.1 0.7 1.8v17q0 0.5-0.2 1q-0.2 0.4-0.5 0.8q-0.4 0.3-0.8 0.5q-0.5 0.2-1 0.2z" /><path class="s1" d="m98.3 164.5c-1.4 0-2.5-1.1-2.5-2.5c0-1.4 1.1-2.5 2.5-2.5c1.4 0 2.5 1.1 2.5 2.5c0 1.4-1.1 2.5-2.5 2.5z" /></svg>