<svg version="1.2" baseProfile="tiny-ps" xmlns="http://www.w3.org/2000/svg" viewBox="0 0 1596 200" width="1596" height="200">
	<title>text</title>
	<style>
		tspan { white-space:pre }
		.shp0 { fill: #ffe500 } 
		.shp1 { fill: #695203 } 
	</style>
	<g id="text">
		<path id="Path 0" class="shp0" d="M798.4 -0.02C1437.94 -0.03 1592.75 0.21 1593.77 1.23C1594.77 2.24 1595.03 22.65 1595.03 100C1595.03 175.22 1594.76 197.79 1593.82 198.75C1592.85 199.75 1432.51 199.99 798.55 199.97C176.01 199.94 4.13 199.67 2.79 198.72C1.2 197.58 1.06 190.75 0.86 100.58C0.65 7.87 0.72 3.58 2.47 1.83C4.24 0.06 30.43 0 798.4 -0.02Z" />
		<path id="Path 1" class="shp1" d="M943 27L943 140L933.5 140C924.03 140 924 139.99 924 137.5C924 136.12 923.77 134.32 923.5 133.5C923.11 132.32 922.2 132.68 919.25 135.17C917.19 136.91 914.04 138.94 912.25 139.67C910.46 140.4 905.96 140.99 902.25 140.98C897.89 140.96 894.08 140.31 891.5 139.13C889.3 138.13 886.15 136.19 884.5 134.82C882.85 133.45 880.29 130.34 878.81 127.91C877.33 125.49 875.19 119.9 874.05 115.5C872.83 110.78 871.99 104.42 872 100C872.02 95.87 872.7 89.69 873.51 86.25C874.33 82.81 876.07 77.86 877.38 75.25C878.68 72.64 881.61 68.81 883.88 66.75C886.14 64.69 889.24 62.52 890.75 61.92C892.26 61.33 895.75 60.42 898.5 59.89C901.89 59.24 905.11 59.29 908.5 60.04C911.25 60.65 915.3 62.48 921.5 67.08L921.76 48.29C921.9 37.96 922.22 28.94 922.48 28.25C922.81 27.36 925.87 27 943 27ZM1242.25 29.08C1243.21 29.04 1245.57 29.67 1247.5 30.5C1249.48 31.35 1251.65 33.3 1252.5 35C1253.32 36.65 1254 39.35 1254 41C1254 43.06 1252.93 45.1 1250.6 47.5C1247.59 50.6 1246.61 51 1242.1 51C1238.13 51 1236.34 50.45 1234 48.5C1232.28 47.06 1230.74 44.62 1230.39 42.75C1230.01 40.72 1230.37 38.19 1231.35 36C1232.22 34.07 1233.96 31.97 1235.21 31.32C1236.47 30.68 1238.17 29.92 1239 29.65C1239.82 29.38 1241.29 29.12 1242.25 29.08ZM54 33L83 33L84.39 37.25C85.15 39.59 91.03 56.35 97.45 74.5C103.87 92.65 109.52 107.95 110 108.5C110.53 109.11 111.53 107.55 112.57 104.5C113.51 101.75 119.5 84.65 137.5 33.5L166 33L166 140L143.5 140L144.24 117.25C144.65 104.74 145.27 87.75 145.62 79.5C146.03 69.69 145.92 64.85 145.27 65.5C144.74 66.05 138.27 83.07 117.5 140.14L102.5 139.5L89.33 103C82.08 82.92 75.55 66.31 74.82 66.07C73.79 65.73 73.66 66.61 74.23 70.07C74.63 72.51 75.31 89.24 76.5 140L54 140L54 86.5L54 33ZM298 33L368 33L368 51L320 51L320 79L362 79L362 97L320 97L320 140L298 140L298 86.5L298 33ZM708.03 32.97L779.5 33.5L780 51L730 51L730 76L772 76L772 94L730 94L730 122L780 122L780 140L708 140L708.01 86.49L708.03 32.97ZM999 33L1021.25 32.99C1033.49 32.99 1046.2 33.48 1049.5 34.09C1052.8 34.69 1057.97 36.37 1061 37.81C1064.02 39.25 1068.28 42.24 1070.45 44.46C1072.62 46.68 1075.51 50.97 1076.88 54C1078.48 57.56 1079.5 61.98 1079.78 66.5C1080.08 71.35 1079.68 75.34 1078.46 79.5C1077.04 84.31 1075.58 86.61 1071.1 91.08C1067.1 95.07 1063.78 97.31 1059.5 98.92C1056.2 100.15 1049.67 101.57 1045 102.07C1040.32 102.56 1032.79 102.97 1020 103L1020 140L999 140L999 86.5L999 33ZM602 41L623.18 41L623.5 60.5L637 61L637 76L623.5 76.5L623.2 94.5C623.04 104.4 623.15 114.41 623.45 116.75C623.75 119.09 624.67 121.67 625.5 122.5C626.47 123.47 628.94 124 638 124L638 131.5C638 138.57 637.86 139.06 635.5 140C634.12 140.55 629.62 141 625.5 141C620.97 141 616.51 140.38 614.25 139.44C612.19 138.58 609.66 137.12 608.64 136.19C607.62 135.26 605.83 132.7 604.66 130.5C602.67 126.77 602.51 124.81 602 76L591 76L591 61L602 61L602 51L602 41ZM1433 41L1454.18 41L1454.5 60.5L1468 61L1468 76L1454.5 76.5L1454.2 94.5C1454.04 104.4 1454.15 114.41 1454.45 116.75C1454.75 119.09 1455.67 121.67 1456.5 122.5C1457.47 123.47 1459.94 124 1469 124L1469 131.5C1469 138.57 1468.86 139.06 1466.5 140C1465.12 140.55 1460.62 141 1456.5 141C1451.97 141 1447.51 140.38 1445.25 139.44C1443.19 138.58 1440.66 137.12 1439.64 136.19C1438.62 135.26 1436.83 132.7 1435.66 130.5C1433.67 126.77 1433.51 124.81 1433 76L1422 76L1422 61L1433 61L1433 51L1433 41Z" />
		<path id="Path 2" class="shp0" d="M1033.83 51.15C1044.59 51.45 1047.03 51.82 1050 53.62C1052.15 54.93 1054.42 57.62 1055.9 60.62C1057.84 64.55 1058.19 66.47 1057.73 70.5C1057.41 73.25 1056.29 76.62 1055.22 78C1054.16 79.37 1051.76 81.39 1049.9 82.47C1047 84.15 1044.58 84.44 1020.5 84.5L1020.31 69.04C1020.21 60.54 1020.36 52.96 1020.64 52.19C1021.05 51.08 1023.68 50.87 1033.83 51.15Z" />
		<path id="Path 3" class="shp1" d="M416 59.12C416.82 59.07 418.51 59.25 419.75 59.51C421.9 59.98 422 60.44 422 80L416.25 80.02C413.09 80.03 408.75 80.59 406.61 81.27C404.46 81.94 401.65 83.74 400.36 85.25C398.01 87.99 398 88.14 398 140L377 140L377 61L397 61L397 63.5C397 64.87 397.22 66.67 397.5 67.5C397.87 68.62 399 68 402 65C404.72 62.28 407.36 60.72 410.25 60.11C412.59 59.62 415.17 59.17 416 59.12ZM462.24 59.12C462.65 59.06 465.91 59.45 469.49 60C473.07 60.55 478.25 62.12 481 63.5C483.75 64.87 487.89 67.91 490.2 70.25C492.51 72.59 495.42 76.75 496.67 79.5C497.92 82.25 499.41 86.97 499.98 90C500.55 93.02 501.01 98.2 500.99 101.5C500.98 104.8 500.25 110.2 499.38 113.5C498.51 116.8 496.95 121.19 495.9 123.25C494.86 125.31 492.09 128.87 489.75 131.15C487.41 133.44 483.02 136.44 480 137.82C476.97 139.21 472.02 140.61 469 140.93C465.97 141.26 461.02 141.25 458 140.92C454.97 140.59 450.02 139.21 447 137.86C443.97 136.51 439.59 133.51 437.25 131.2C434.91 128.89 432.03 125.09 430.85 122.75C429.66 120.41 428.09 116.25 427.36 113.5C426.62 110.75 426.02 105.24 426.01 101.25C426.01 97.26 426.51 91.64 427.13 88.75C427.74 85.86 429.07 81.7 430.08 79.5C431.09 77.3 433.84 73.32 436.21 70.65C438.57 67.99 442.75 64.71 445.5 63.36C448.25 62.02 452.97 60.54 456 60.08C459.02 59.62 461.83 59.19 462.24 59.12ZM560 59.63C562.47 59.89 565.96 60.53 567.75 61.05C569.56 61.58 572.66 63.92 574.75 66.34C576.81 68.72 579.14 72.43 579.93 74.59C581.03 77.58 581.44 85.71 582 140L561 140L560.99 113.75C560.99 99.31 560.54 85.81 559.99 83.75C559.37 81.4 557.97 79.37 556.25 78.33C554.2 77.08 551.92 76.76 547.32 77.08C542.12 77.43 540.65 77.97 534.96 83.5L535 140L514 140L514 61L534 61L533.91 70.5L537.95 66.75C540.18 64.69 543.24 62.51 544.75 61.92C546.26 61.32 549.3 60.45 551.5 59.99C553.7 59.53 557.52 59.36 560 59.63ZM833.5 59.1C834.05 59.03 836.97 59.45 840 60.02C843.02 60.59 847.22 62.28 849.33 63.78C851.72 65.47 854.17 68.57 858.5 77.5L859 140L838 140L838 113C838 91.22 837.71 85.32 836.5 82.5C835.67 80.57 834.1 78.55 833 78C831.9 77.45 828.75 77 826 77C823.25 77 819.99 77.51 818.75 78.12C817.51 78.74 815.48 80.21 814.22 81.37C811.96 83.49 811.95 83.63 812 140L791 140L791 61L811 61L810.97 64.25C810.96 66.04 811.29 67.83 811.72 68.23C812.15 68.63 813.96 67.62 815.75 65.98C817.54 64.34 820.24 62.51 821.75 61.92C823.26 61.32 826.3 60.47 828.5 60.03C830.7 59.58 832.95 59.17 833.5 59.1ZM1131.5 59.06C1132.05 59.01 1133.97 59.32 1135.77 59.74C1138.94 60.47 1139.05 60.67 1139.03 65.5C1139.02 68.25 1138.67 72.64 1137.5 80.03L1131.75 80.02C1128.59 80.01 1124.76 80.48 1123.25 81.06C1121.74 81.65 1119.25 83.34 1114.96 87.5L1115 140L1094 140L1094 61L1114 61L1114 64.5C1114 66.42 1114.34 68.2 1114.75 68.44C1115.16 68.68 1116.74 67.33 1118.25 65.44C1120.09 63.14 1122.58 61.53 1125.75 60.57C1128.36 59.78 1130.95 59.1 1131.5 59.06ZM1179.24 59.12C1179.65 59.06 1182.91 59.45 1186.49 60C1190.07 60.55 1195.14 62.08 1197.75 63.41C1200.36 64.74 1204.03 67.32 1205.89 69.16C1207.76 71 1210.27 74.07 1211.49 76C1212.7 77.92 1214.43 81.75 1215.33 84.5C1216.23 87.25 1217.24 92.65 1217.58 96.5C1217.98 101.09 1217.68 105.91 1216.71 110.5C1215.89 114.35 1214.29 119.52 1213.15 122C1212.01 124.47 1209.15 128.45 1206.79 130.84C1204.43 133.22 1200.92 135.99 1199 136.98C1197.07 137.97 1193.47 139.33 1191 139.98C1188.52 140.64 1183.35 141.14 1179.5 141.1C1175.65 141.05 1170.47 140.4 1168 139.65C1165.52 138.9 1161.59 137.1 1159.25 135.64C1156.91 134.19 1153.3 130.86 1151.23 128.25C1149.12 125.59 1146.44 120.42 1145.15 116.5C1143.14 110.44 1142.89 108.03 1143.25 98.5C1143.55 90.53 1144.25 85.99 1145.77 82C1146.94 78.94 1150.01 74.13 1152.69 71.16C1155.33 68.22 1159.75 64.71 1162.5 63.37C1165.25 62.02 1169.97 60.54 1173 60.08C1176.02 59.62 1178.83 59.19 1179.24 59.12ZM1308 59.79C1311.02 60.03 1316.15 61.42 1319.39 62.87C1322.84 64.41 1326.87 67.26 1329.14 69.75C1331.26 72.09 1333.85 75.91 1334.88 78.25C1335.92 80.59 1337.27 85.2 1337.89 88.5C1338.51 91.8 1339.01 97.31 1339 107L1314 107C1289.67 107 1289 107.05 1289 109C1289 110.1 1289.9 112.8 1291 115C1292.26 117.52 1294.58 119.92 1297.25 121.48C1300.35 123.29 1302.99 123.96 1307 123.98C1310.02 123.99 1314.07 123.54 1316 122.99C1317.92 122.43 1321.19 120.63 1323.25 118.99C1325.31 117.34 1327.11 116.12 1327.25 116.27C1327.39 116.42 1329.75 118.89 1337.5 126.99L1333.5 131.04C1331.3 133.27 1327.14 136.2 1324.25 137.55C1321.36 138.9 1316.19 140.4 1312.75 140.88C1309.09 141.39 1303.81 141.38 1300 140.85C1296.42 140.35 1291.02 138.81 1288 137.42C1284.97 136.03 1280.55 133.01 1278.17 130.7C1275.78 128.39 1272.91 124.7 1271.78 122.5C1270.65 120.3 1269.12 116.47 1268.38 114C1267.63 111.52 1267.01 105.9 1267.01 101.5C1267 97.1 1267.67 90.91 1268.49 87.75C1269.32 84.59 1270.9 80.2 1272 78C1273.1 75.8 1276.02 71.97 1278.5 69.5C1280.97 67.02 1285.14 64.03 1287.75 62.85C1290.36 61.67 1294.75 60.4 1297.5 60.03C1300.25 59.65 1304.97 59.55 1308 59.79ZM1388 59.75C1390.47 59.99 1394.75 60.89 1397.5 61.76C1401.06 62.88 1404.12 64.94 1408.12 68.92C1411.8 72.58 1414.12 75.88 1414.87 78.5C1415.5 80.7 1416.35 84.2 1417.5 90.04L1397.5 90.05L1396.68 86.77C1396.23 84.97 1394.32 82.04 1392.43 80.25C1389.4 77.38 1388.35 77 1383.4 77C1378.42 77 1377.44 77.36 1374.53 80.25C1372.73 82.04 1370.75 85.3 1370.13 87.5C1369.52 89.7 1369.01 95.55 1369.01 100.5C1369.01 105.45 1369.52 111.3 1370.13 113.5C1370.75 115.7 1372.77 118.96 1374.63 120.75C1377.56 123.58 1378.68 124 1383.25 124C1386.74 123.99 1389.59 123.32 1391.75 122C1393.65 120.83 1395.52 118.54 1397.5 112.97L1407.25 112.99C1414.37 113 1417 113.34 1417.01 114.25C1417.02 114.94 1416.34 117.86 1415.51 120.75C1414.52 124.18 1412.53 127.6 1409.75 130.62C1407.41 133.16 1403.47 136.25 1401 137.5C1398.52 138.74 1394.92 140.09 1393 140.5C1391.07 140.91 1386.8 141.23 1383.5 141.21C1380.2 141.2 1375.47 140.66 1373 140.03C1370.52 139.39 1366.07 137.21 1363.11 135.19C1360.14 133.16 1356.48 129.7 1354.96 127.5C1353.45 125.3 1351.22 120.57 1350.01 117C1348.32 112 1347.82 108.19 1347.82 100.5C1347.83 93.22 1348.4 88.66 1349.92 83.75C1351.29 79.31 1353.47 75.21 1356.31 71.75C1358.93 68.56 1362.75 65.39 1366.06 63.68C1369.05 62.13 1374.2 60.51 1377.5 60.09C1380.8 59.66 1385.52 59.51 1388 59.75ZM1513.5 59.71C1516.25 59.96 1520.75 60.78 1523.5 61.53C1526.25 62.28 1530.3 64.17 1532.5 65.74C1534.7 67.31 1537.44 69.92 1538.6 71.55C1539.75 73.17 1541.22 76.07 1541.86 78C1542.51 79.92 1543.03 82.29 1543.02 83.25C1543 84.8 1541.83 85 1522 85L1521 81.5C1520.45 79.57 1518.99 77.32 1517.75 76.49C1516.44 75.62 1513.2 74.97 1510 74.96C1506.01 74.94 1503.75 75.49 1501.75 76.97C1499.66 78.51 1499 79.84 1499 82.5C1499 84.54 1499.73 86.68 1500.75 87.64C1501.71 88.54 1503.62 89.7 1505 90.21C1506.37 90.72 1511.32 92.03 1516 93.12C1520.67 94.22 1526.52 96.01 1529 97.11C1531.47 98.2 1535 100.54 1536.83 102.3C1538.66 104.06 1540.81 107.07 1541.6 109C1542.4 110.92 1543.05 114.52 1543.05 117C1543.05 119.47 1542.42 123.07 1541.65 125C1540.87 126.92 1538.73 130.04 1536.87 131.92C1535.02 133.8 1531.25 136.38 1528.5 137.65C1525.75 138.92 1520.35 140.36 1516.5 140.85C1512.47 141.37 1506.85 141.37 1503.25 140.87C1499.81 140.39 1494.64 138.91 1491.75 137.58C1488.86 136.25 1484.73 133.21 1482.57 130.83C1480.41 128.45 1478.04 125.04 1477.32 123.25C1476.59 121.46 1476 118.87 1476 117.5C1476 115.01 1476.02 115 1495.5 114.95L1496.5 118.11C1497.05 119.85 1498.62 122.14 1500 123.2C1501.37 124.25 1504.3 125.44 1506.5 125.85C1508.7 126.26 1512.3 126.26 1514.5 125.86C1516.7 125.46 1519.4 124.2 1520.5 123.05C1521.79 121.7 1522.43 119.81 1522.29 117.73C1522.16 115.69 1521.24 113.87 1519.79 112.8C1518.53 111.86 1513.9 110.14 1509.5 108.97C1505.1 107.8 1499.02 105.98 1496 104.92C1492.97 103.86 1488.51 101.31 1486.08 99.25C1483.64 97.19 1480.84 93.7 1479.85 91.5C1478.86 89.3 1478.03 86.15 1478.01 84.5C1477.99 82.85 1478.64 79.47 1479.45 77C1480.39 74.13 1482.56 70.96 1485.46 68.25C1487.96 65.91 1491.69 63.3 1493.75 62.44C1495.81 61.58 1499.97 60.51 1503 60.06C1506.02 59.61 1510.75 59.45 1513.5 59.71ZM199.33 61.5L206.2 84.5C209.98 97.15 213.28 107.72 213.53 108C213.79 108.27 214.15 108.27 214.33 108C214.51 107.72 217.77 97.03 228.5 60.96L239.75 60.98C250.01 61 250.95 61.15 250.43 62.75C250.12 63.71 242.69 85.09 233.93 110.25C225.17 135.41 216.95 157.69 215.67 159.75C214.39 161.81 211.58 164.95 209.42 166.73C207.16 168.59 203.38 170.45 200.5 171.1C197.75 171.73 193.14 171.96 185 171L184.97 155.5L189.98 154.75C192.93 154.31 196.13 153.03 197.75 151.65C199.26 150.36 201.3 147.32 204.06 140.5L190.51 101.5C183.06 80.05 176.99 62.15 177.02 61.72C177.04 61.29 182.08 61.06 199.33 61.5ZM1232 61L1253.03 61L1252.76 107.75C1252.51 153.21 1252.44 154.61 1250.38 158.5C1249.21 160.7 1246.62 163.96 1244.63 165.75C1242.63 167.54 1238.64 169.68 1235.75 170.51C1232.86 171.34 1228.7 172.02 1226.5 172.02C1224.3 172.02 1221.03 171.68 1215.95 170.5L1216 154L1218.75 154.59C1220.26 154.92 1223.19 154.69 1225.25 154.09C1227.82 153.34 1229.47 152.06 1230.5 150C1231.76 147.47 1232 140.22 1232 104L1232 61Z" />
		<path id="Path 4" class="shp0" d="M463.5 77.01C466.53 77.01 469.68 77.72 471.5 78.8C473.16 79.8 475.6 82.81 476.96 85.55C479.09 89.83 479.42 91.85 479.4 100.5C479.37 109.04 479.02 111.22 476.94 115.45C475.58 118.22 473.18 121.19 471.5 122.2C469.68 123.28 466.53 123.99 463.5 123.99C460.26 123.99 457.36 123.29 455.25 122C453.33 120.82 451.08 118.05 449.76 115.25C447.9 111.3 447.53 108.82 447.56 100.5C447.59 92.35 448 89.62 449.8 85.75C451.11 82.92 453.31 80.2 455.25 79C457.36 77.71 460.26 77.01 463.5 77.01ZM909.73 77.14C915.5 77.46 916.45 77.83 922 84L922 100C922 113.55 921.73 116.41 920.25 118.67C919.29 120.14 917.04 121.94 915.25 122.67C913.46 123.4 909.97 124 907.5 124C904 124 902.32 123.39 899.93 121.25C898.24 119.74 896.1 116.47 895.18 114C894.09 111.08 893.5 106.51 893.5 101C893.5 96.29 894.17 90.31 895 87.6C895.96 84.46 897.73 81.63 899.91 79.74C903.05 77.01 903.81 76.81 909.73 77.14ZM1180.15 77C1185.1 77 1186.49 77.43 1189.17 79.75C1190.92 81.26 1193.16 84.3 1194.15 86.5C1195.46 89.39 1195.96 92.99 1195.97 99.5C1195.98 104.45 1195.54 110.19 1194.99 112.25C1194.45 114.31 1192.54 117.64 1190.75 119.63C1187.84 122.89 1186.88 123.32 1181.5 123.72C1176.4 124.11 1174.99 123.83 1172.09 121.84C1170.21 120.55 1167.73 117.7 1166.59 115.5C1164.83 112.14 1164.5 109.74 1164.52 100.5C1164.54 91.09 1164.86 88.89 1166.77 85.25C1168 82.91 1170.19 80.1 1171.65 79C1173.6 77.53 1175.86 77 1180.15 77ZM1303.9 76.97C1308.25 76.94 1310.16 77.44 1312.43 79.22C1314.04 80.47 1315.95 82.96 1316.68 84.75C1317.4 86.54 1318 89.12 1318 93L1303.5 93C1289.67 93 1289 92.91 1289 91C1289 89.9 1289.9 87.2 1291 85C1292.1 82.8 1294.19 80.1 1295.65 79C1297.55 77.57 1299.9 76.99 1303.9 76.97Z" />
		<path id="Path 5" class="shp1" d="M649 86L690 86L690 103L649 103L649 94.5L649 86Z" />
	</g>
</svg>