<svg version="1.2" baseProfile="tiny-ps" xmlns="http://www.w3.org/2000/svg" viewBox="0 0 1336 200" width="1336" height="200">
	<title>text</title>
	<style>
		tspan { white-space:pre }
		.s0 { fill: #663399 } 
		.s1 { fill: #ffffff } 
	</style>
	<g id="text">
		<path id="Path 0" class="s0" d="m0 0h1336v200h-1336v-100v-100z" />
		<path id="Path 1" class="s1" d="m691 27v113h-9.5c-9.47 0-9.5-0.01-9.5-2.5c0-1.37-0.23-3.18-0.5-4c-0.4-1.19-1.23-0.87-4 1.5c-1.93 1.65-5.19 3.69-7.25 4.52c-2.06 0.84-6.56 1.51-10 1.5c-3.44-0.01-7.94-0.73-10-1.59c-2.06-0.86-5.21-2.66-7-4c-1.79-1.34-4.44-4.35-5.9-6.69c-1.46-2.34-3.52-6.72-4.58-9.75c-1.16-3.31-2.14-9.49-2.45-15.5c-0.38-7.27-0.09-11.84 1.08-16.75c0.88-3.71 2.67-8.89 3.97-11.5c1.3-2.61 4.37-6.55 6.82-8.75c2.59-2.33 6.51-4.61 9.39-5.47c2.71-0.81 7.41-1.44 10.43-1.41c3.44 0.04 7 0.82 9.5 2.1c2.2 1.12 4.67 2.78 5.5 3.7c0.83 0.92 1.84 1.65 2.25 1.62c0.41-0.02 0.68-8.74 0.58-19.38c-0.09-10.63 0.21-19.63 0.67-20c0.46-0.37 5.26-0.67 20.5-0.67zm299.25 2.08c0.96-0.04 3.32 0.6 5.25 1.42c1.98 0.85 4.15 2.8 5 4.5c0.83 1.65 1.5 4.35 1.5 6c0 2.06-1.07 4.1-3.4 6.5c-3.01 3.1-3.99 3.5-8.5 3.5c-3.97 0-5.76-0.55-8.1-2.5c-1.72-1.44-3.26-3.88-3.61-5.75c-0.38-2.03-0.02-4.56 0.96-6.75c0.87-1.93 2.6-4.03 3.86-4.68c1.26-0.65 2.96-1.4 3.79-1.67c0.82-0.27 2.29-0.53 3.25-0.57zm-944.22 3.9l69.47 0.53l0.5 17.5h-48v28h42v18h-42v43h-22l0.01-53.51l0.01-53.51zm410 0l71.47 0.53l0.5 17.5h-50v25h42v18h-42v28h50v18h-72l0.01-53.51l0.01-53.51zm313.39 0.02c12.15 0 24.78 0.49 28.08 1.09c3.3 0.61 8.43 2.3 11.4 3.76c2.97 1.46 7.22 4.46 9.45 6.66c2.23 2.2 5.16 6.47 6.52 9.5c1.44 3.22 2.67 8.19 2.95 12c0.29 3.85-0.05 8.54-0.84 11.5c-0.73 2.75-2.3 6.57-3.49 8.5c-1.19 1.93-4.15 5.2-6.57 7.29c-2.43 2.08-6.89 4.71-9.92 5.83c-3.03 1.13-9.33 2.45-14 2.95c-4.68 0.49-12.21 0.91-25 0.93v37h-22l-0.17-52.83c-0.09-29.06 0.21-53.13 0.67-53.5c0.46-0.37 10.77-0.67 22.92-0.67zm-419.42 8.01h21v20h14v15h-14l0 19.75c0 10.86 0.46 21.32 1.02 23.25c0.56 1.93 1.58 3.83 2.25 4.23c0.67 0.4 3.59 0.74 11.73 0.77v7.5c0 4.96-0.42 7.74-1.25 8.2c-0.69 0.39-5.08 0.88-9.75 1.09c-6.03 0.28-9.66-0.05-12.5-1.14c-2.2-0.84-5.38-3.02-7.07-4.84c-1.95-2.1-3.5-5.23-4.25-8.56c-0.71-3.18-1.18-14.11-1.18-50.25h-11v-15h11v-10v-10zm831 0h21.18l0.32 19.5l13.5 0.5v15l-13.5 0.5l-0.3 18c-0.16 9.9-0.05 19.91 0.25 22.25c0.3 2.34 1.22 4.92 2.05 5.75c0.97 0.97 3.44 1.5 12.5 1.5v7.5c0 4.96-0.42 7.74-1.25 8.2c-0.69 0.39-4.85 0.9-9.25 1.13c-5.14 0.28-9.43-0.05-12-0.91c-2.2-0.74-5.29-2.49-6.87-3.88c-1.58-1.4-3.59-4.12-4.46-6.04c-1.28-2.83-1.64-8.33-2.17-54h-11v-15h11v-10v-10z" />
		<path id="Path 2" class="s0" d="m781.9 51.15c11.66 0.32 13.06 0.56 16.37 2.85c1.99 1.37 4.42 3.85 5.4 5.5c1.18 1.98 1.79 5.09 1.81 9.17c0.02 4.74-0.46 6.83-2.08 9c-1.16 1.55-3.63 3.71-5.5 4.8c-2.89 1.68-5.31 1.97-29.4 2.03l-0.19-15.46c-0.1-8.5 0.04-16.08 0.33-16.85c0.41-1.12 3.05-1.32 13.26-1.04z" />
		<path id="Path 3" class="s1" d="m164 59.12c0.82-0.05 2.51 0.13 3.75 0.39c2.15 0.46 2.25 0.93 2.25 20.49l-5.75 0.02c-3.16 0.01-7.5 0.57-9.64 1.25c-2.14 0.68-4.95 2.47-6.25 3.98c-2.34 2.74-2.36 2.89-2.36 54.75h-21v-79h20l-0.03 3.25c-0.02 1.79 0.21 3.59 0.5 4c0.29 0.41 2.33-1.05 4.53-3.25c2.72-2.72 5.36-4.28 8.25-4.89c2.34-0.49 4.93-0.93 5.75-0.99zm46.24 0c0.41-0.07 3.67 0.33 7.25 0.88c3.58 0.55 8.76 2.13 11.51 3.5c2.75 1.37 6.87 4.41 9.15 6.75c2.28 2.34 5.2 6.5 6.47 9.25c1.27 2.75 2.79 7.47 3.36 10.5c0.57 3.03 1.03 7.97 1.02 11c-0.01 3.03-0.71 8.42-1.55 12c-0.84 3.57-2.97 8.89-4.74 11.81c-1.77 2.92-5.24 6.88-7.71 8.79c-2.47 1.91-6.97 4.39-10 5.5c-3.81 1.4-7.96 2.02-13.5 2.03c-5.69 0-9.59-0.6-13.5-2.08c-3.03-1.15-7.23-3.32-9.35-4.82c-2.12-1.5-4.87-4.08-6.1-5.73c-1.24-1.65-3.06-4.57-4.05-6.5c-0.99-1.93-2.4-5.75-3.14-8.5c-0.73-2.75-1.33-8.6-1.33-13c0-4.4 0.6-10.25 1.33-13c0.73-2.75 2.19-6.77 3.24-8.94c1.05-2.16 3.71-5.92 5.91-8.35c2.2-2.43 6.25-5.51 9-6.86c2.75-1.34 7.48-2.82 10.5-3.28c3.02-0.46 5.83-0.89 6.24-0.96zm97.76 0.5c2.47 0.26 5.96 0.91 7.75 1.43c1.81 0.53 4.91 2.87 7 5.28c2.06 2.38 4.39 6.1 5.18 8.25c1.1 3 1.51 11.13 2.07 65.41h-21l-0.01-26.25c0-14.44-0.45-27.94-1-30c-0.72-2.72-1.88-4.19-4.24-5.38c-2.22-1.11-5.04-1.51-8.93-1.25c-4.67 0.31-6.22 0.91-11.87 6.38l0.04 56.5h-21v-79h20l-0.09 9.5l4.05-3.75c2.23-2.06 5.28-4.24 6.8-4.83c1.51-0.6 4.55-1.46 6.75-1.93c2.2-0.46 6.03-0.63 8.5-0.36zm277.5 0.07c2.75 0.29 6.35 1.11 8 1.82c1.65 0.71 4.32 2.57 5.94 4.14c1.62 1.57 3.87 4.87 5 7.35c1.92 4.2 2.08 6.61 2.56 67h-21v-27c0-21.78-0.29-27.68-1.5-30.5c-0.82-1.93-2.4-3.95-3.5-4.5c-1.1-0.55-4.25-1-7-1c-2.75 0-6.01 0.51-7.25 1.12c-1.24 0.62-3.27 2.08-4.53 3.25c-2.27 2.12-2.28 2.26-2.22 58.63h-21v-79h20l-0.03 3.25c-0.02 1.79 0.32 3.58 0.75 3.98c0.43 0.4 2.24-0.61 4.03-2.25c1.79-1.64 4.49-3.47 6-4.06c1.51-0.6 4.55-1.46 6.75-1.92c2.2-0.46 6.25-0.6 9-0.31zm297-0.1c2.2 0.3 4.14 0.62 4.31 0.72c0.17 0.1 0.06 4.58-0.81 19.69h-6c-3.3 0-7.46 0.59-9.25 1.32c-1.79 0.73-4.27 2.41-5.52 3.75c-2.24 2.4-2.27 2.76-2.23 54.93h-21v-79h20l-0.03 3.25c-0.02 1.79 0.21 3.59 0.5 4c0.29 0.41 1.99-0.86 3.78-2.83c1.96-2.16 5.04-4.14 7.75-4.97c2.49-0.77 6.29-1.15 8.5-0.86zm44.74-0.46c0.41-0.07 3.67 0.33 7.25 0.88c3.58 0.55 8.65 2.08 11.26 3.41c2.61 1.33 6.28 3.91 8.14 5.75c1.86 1.84 4.38 4.91 5.59 6.84c1.21 1.93 2.92 5.75 3.8 8.5c0.88 2.75 1.89 7.48 2.26 10.5c0.36 3.02 0.14 8.88-0.5 13c-0.63 4.12-2.25 9.97-3.6 13c-1.35 3.03-4.59 7.62-7.2 10.2c-2.61 2.59-6.77 5.61-9.25 6.71c-2.47 1.1-7.2 2.37-10.5 2.82c-3.3 0.45-8.92 0.47-12.5 0.06c-3.85-0.45-8.7-1.88-11.9-3.52c-2.97-1.52-7.37-5.02-9.77-7.77c-2.4-2.75-5.37-7.47-6.58-10.5c-1.89-4.69-2.21-7.41-2.21-18.5c0-11.41 0.29-13.73 2.41-19c1.4-3.5 4.32-8.01 6.98-10.83c2.52-2.65 6.82-5.93 9.57-7.29c2.75-1.36 7.48-2.84 10.5-3.3c3.02-0.46 5.83-0.89 6.24-0.96zm126.26 0.46c1.65 0.18 4.8 0.62 7 0.97c2.2 0.36 6.02 1.67 8.5 2.92c2.47 1.25 6.19 4.13 8.25 6.4c2.06 2.27 4.58 6.04 5.61 8.37c1.02 2.34 2.37 7.17 2.99 10.75c0.63 3.58 1.14 9.09 1.15 18h-50l0.02 2.25c0.01 1.24 1.04 4.05 2.29 6.25c1.28 2.25 4.01 4.98 6.23 6.23c2.73 1.54 5.67 2.24 9.46 2.27c3.02 0.02 7.07-0.48 9-1.11c1.93-0.63 5.19-2.43 11-6.89l4.25 4.61c2.34 2.54 4.59 5.24 5 6c0.51 0.94-0.71 2.69-3.75 5.39c-2.48 2.2-6.64 4.92-9.25 6.05c-2.61 1.13-7.45 2.43-10.75 2.88c-3.34 0.46-8.88 0.42-12.5-0.08c-3.58-0.5-8.97-2.04-12-3.43c-3.02-1.39-7.45-4.41-9.83-6.72c-2.38-2.31-5.26-6-6.38-8.2c-1.13-2.2-2.66-6.02-3.41-8.5c-0.75-2.48-1.36-8.1-1.37-12.5c-0.01-4.4 0.69-10.7 1.55-14c0.86-3.3 2.78-8.2 4.26-10.89c1.48-2.69 4.49-6.46 6.69-8.37c2.2-1.91 6.02-4.39 8.5-5.5c2.47-1.11 6.75-2.35 9.5-2.75c2.75-0.4 6.35-0.58 8-0.4zm82.5 0.17c2.48 0.24 6.53 1.04 9 1.79c2.47 0.75 6.75 3.33 9.5 5.74c3.01 2.64 5.87 6.34 7.19 9.3c1.2 2.7 2.55 6.84 3.81 13.46l-20 0.01l-0.82-3.27c-0.45-1.8-2.36-4.74-4.25-6.52c-3.03-2.87-4.08-3.25-9.03-3.25c-4.98 0-5.96 0.36-8.87 3.25c-1.8 1.79-3.78 5.05-4.39 7.25c-0.62 2.2-1.12 8.05-1.12 13c0 4.95 0.51 10.8 1.12 13c0.62 2.2 2.64 5.46 4.49 7.25c2.93 2.83 4.05 3.25 8.62 3.25c3.49 0 6.34-0.67 8.5-2c1.9-1.17 3.77-3.45 5.75-9.02l9.75 0.01c7.12 0.01 9.75 0.35 9.76 1.26c0.01 0.69-0.64 3.5-1.44 6.25c-0.89 3.06-3.13 6.9-5.76 9.89c-2.37 2.69-6.45 5.95-9.06 7.25c-2.61 1.3-7.56 2.74-11 3.2c-3.44 0.46-8.95 0.45-12.25-0.03c-3.3-0.47-8.02-1.84-10.5-3.04c-2.47-1.2-6.53-4.24-9-6.76c-2.79-2.85-5.38-6.85-6.81-10.55c-1.27-3.28-2.71-9.11-3.19-12.96c-0.51-4.01-0.51-9.99-0.01-14c0.48-3.85 1.79-9.47 2.92-12.5c1.13-3.03 4-7.75 6.39-10.5c2.82-3.24 6.25-5.84 9.77-7.4c2.98-1.32 7.9-2.71 10.92-3.09c3.03-0.38 7.53-0.5 10-0.26zm125.5-0.04c2.75 0.25 7.25 1.07 10 1.82c2.75 0.75 6.8 2.64 9 4.21c2.2 1.57 4.94 4.18 6.1 5.81c1.15 1.62 2.62 4.53 3.27 6.45c0.64 1.93 1.16 4.29 1.15 5.25c-0.01 1.57-1.1 1.72-21.39 1.25l-0.81-3.25c-0.45-1.79-1.82-3.93-3.06-4.76c-1.31-0.88-4.55-1.52-7.75-1.53c-3.99-0.02-6.25 0.53-8.25 2.01c-2.03 1.5-2.75 2.89-2.73 5.28c0.01 1.79 0.35 3.7 0.75 4.25c0.4 0.55 1.41 1.54 2.23 2.2c0.82 0.66 6.68 2.52 13 4.13c6.33 1.61 13.3 3.84 15.5 4.96c2.2 1.12 5.21 3.31 6.7 4.87c1.48 1.56 3.4 4.53 4.25 6.59c0.85 2.06 1.56 5.66 1.58 8c0.01 2.34-0.61 5.82-1.39 7.75c-0.78 1.93-2.93 5.02-4.77 6.88c-1.85 1.86-5.61 4.44-8.36 5.73c-2.75 1.29-8.15 2.75-12 3.24c-4.03 0.51-9.65 0.52-13.25 0.02c-3.44-0.48-8.61-1.96-11.5-3.29c-2.89-1.33-7.02-4.37-9.18-6.75c-2.16-2.38-4.53-5.79-5.25-7.58c-0.72-1.79-1.32-4.38-1.32-5.75c0-2.5 0.02-2.5 19.5-2.52l1 3.18c0.55 1.75 2.12 4.02 3.5 5.04c1.38 1.03 4.08 2.24 6 2.71c1.93 0.46 5.35 0.56 7.61 0.22c2.26-0.34 5.09-1.53 6.28-2.63c1.4-1.28 2.16-3.16 2.14-5.25c-0.02-2.08-0.84-3.97-2.28-5.24c-1.24-1.1-5.85-2.92-10.25-4.05c-4.4-1.13-10.47-2.93-13.5-4c-3.02-1.07-7.49-3.64-9.92-5.7c-2.43-2.07-5.24-5.56-6.23-7.76c-0.99-2.2-1.82-5.35-1.84-7c-0.02-1.65 0.63-5.02 1.44-7.5c0.94-2.87 3.11-6.04 6.01-8.75c2.5-2.34 6.23-4.95 8.29-5.81c2.06-0.86 6.22-1.93 9.25-2.38c3.02-0.45 7.75-0.61 10.5-0.35zm-281.5 1.29h21l0.01 44.25c0.01 37.94-0.22 45.03-1.61 49.75c-1.13 3.81-2.89 6.77-5.76 9.64c-2.87 2.87-5.82 4.63-9.64 5.76c-3.02 0.89-7.75 1.61-10.5 1.6c-2.75-0.01-6.01-0.24-7.25-0.51c-2.12-0.46-2.25-0.98-2.25-17.49l2.75 0.59c1.51 0.32 4.44 0.1 6.5-0.5c2.86-0.83 4.11-1.92 5.25-4.59c1.25-2.93 1.5-10.44 1.5-46v-42.5z" />
		<path id="Path 4" class="s0" d="m211.25 77c2.69 0 6.08 0.75 7.82 1.75c1.69 0.96 3.93 3.1 4.98 4.75c1.05 1.65 2.39 5.92 2.97 9.5c0.76 4.62 0.75 8.67-0.02 14c-0.6 4.13-1.97 8.96-3.04 10.75c-1.08 1.79-3.3 3.92-4.95 4.75c-1.65 0.83-5.14 1.5-7.75 1.5c-2.99 0-5.95-0.74-8-2c-1.92-1.18-4.16-3.94-5.48-6.75c-1.84-3.92-2.23-6.49-2.23-14.75c0-8.26 0.39-10.83 2.23-14.75c1.32-2.81 3.56-5.57 5.48-6.75c2.05-1.26 5.01-2 8-2zm446.44 0.14c5.81 0.32 6.76 0.69 12.31 6.86v16c0 13.55-0.27 16.41-1.75 18.67c-0.96 1.47-3.21 3.27-5 4c-1.79 0.73-5.27 1.33-7.75 1.33c-3.47 0-5.22-0.63-7.67-2.75c-1.74-1.51-3.77-4.21-4.5-6c-0.73-1.79-1.61-6.74-1.96-11c-0.45-5.62-0.18-9.53 1.01-14.25c1.26-5.02 2.46-7.27 5.24-9.86c3.44-3.21 3.89-3.34 10.07-3zm270.16-0.14c5.27 0 6.6 0.39 9.32 2.75c1.74 1.51 3.98 4.55 4.98 6.75c1.31 2.89 1.81 6.49 1.82 13c0.01 4.95-0.43 10.69-0.98 12.75c-0.55 2.06-2.46 5.39-4.24 7.38c-2.91 3.26-3.87 3.68-9.25 4.09c-5.1 0.39-6.51 0.1-9.41-1.88c-1.88-1.29-4.33-4.14-5.45-6.34c-1.32-2.6-2.18-6.62-2.46-11.5c-0.23-4.13 0.09-10.09 0.7-13.25c0.87-4.47 1.97-6.64 4.97-9.75c3.67-3.82 4.13-4 10-4zm124.05-0.03c4.34-0.03 6.25 0.48 8.52 2.25c1.61 1.26 3.52 3.75 4.25 5.53c0.73 1.79 1.32 4.38 1.32 8.25h-14.5c-13.83 0-14.5-0.09-14.5-2c0-1.1 0.9-3.8 2-6c1.1-2.2 3.19-4.9 4.65-6c1.9-1.43 4.24-2.01 8.25-2.03z" />
		<path id="Path 5" class="s1" d="m397 86h41v17h-41v-8.5v-8.5z" />
	</g>
</svg>